<?xml version="1.0" encoding="UTF-8" standalone="no"?>
<!-- Created with Inkscape (http://www.inkscape.org/) -->

<svg
   width="256"
   height="256"
   viewBox="0 0 256 256"
   version="1.1"
   id="svg1"
   xml:space="preserve"
   inkscape:export-filename="addon.svg"
   inkscape:export-xdpi="48"
   inkscape:export-ydpi="48"
   sodipodi:docname="addon.svg"
   xmlns:inkscape="http://www.inkscape.org/namespaces/inkscape"
   xmlns:sodipodi="http://sodipodi.sourceforge.net/DTD/sodipodi-0.dtd"
   xmlns="http://www.w3.org/2000/svg"
   xmlns:svg="http://www.w3.org/2000/svg"
   xmlns:rdf="http://www.w3.org/1999/02/22-rdf-syntax-ns#"
   xmlns:cc="http://creativecommons.org/ns#"
   xmlns:dc="http://purl.org/dc/elements/1.1/"><title
     id="title1">yt-pb-calc addon icon</title><sodipodi:namedview
     id="namedview1"
     pagecolor="#505050"
     bordercolor="#eeeeee"
     borderopacity="1"
     inkscape:showpageshadow="false"
     inkscape:pageopacity="0"
     inkscape:pagecheckerboard="true"
     inkscape:deskcolor="#d1d1d1"
     inkscape:document-units="px"
     inkscape:zoom="1.5395044"
     inkscape:cx="255.27695"
     inkscape:cy="255.27695"
     inkscape:window-width="1920"
     inkscape:window-height="1050"
     inkscape:window-x="0"
     inkscape:window-y="0"
     inkscape:window-maximized="1"
     inkscape:current-layer="layer1"
     inkscape:export-bgcolor="#ffffff00"
     borderlayer="false"
     showborder="false"
     shape-rendering="auto" /><defs
     id="defs1"><inkscape:path-effect
       effect="fillet_chamfer"
       id="path-effect13"
       is_visible="true"
       lpeversion="1"
       nodesatellites_param="F,0,0,1,0,0,0,1 @ F,0,0,1,0,82,0,1 @ F,0,0,1,0,59.226319,0,1 @ F,0,0,1,0,82,0,1 @ F,0,0,1,0,0,0,1 @ F,0,0,1,0,82,0,1 @ F,0,0,1,0,0,0,1 @ F,0,0,1,0,82,0,1"
       radius="0"
       unit="px"
       method="auto"
       mode="F"
       chamfer_steps="1"
       flexible="false"
       use_knot_distance="true"
       apply_no_radius="true"
       apply_with_radius="true"
       only_selected="false"
       hide_knots="false" /></defs><g
     inkscape:label="Layer 1"
     inkscape:groupmode="layer"
     id="layer1"
     transform="translate(-128,-128)"><rect
       style="fill:none;fill-opacity:0.757083;stroke-width:0;stroke-dasharray:none"
       id="rect1"
       width="512"
       height="512"
       x="0"
       y="0" /><path
       style="fill:none;fill-opacity:0.757083;stroke-width:0;stroke-dasharray:none"
       d="M 0.30260047,256 V 0 H 256 511.6974 V 256 512 H 256 0.30260047 Z"
       id="path2" /><path
       style="fill:#ff0000;fill-opacity:0.757083;stroke-width:0;stroke-dasharray:none"
       d="M 0,256 V 82 A 82,82 135 0 1 82,0 H 196.47108 429.3948 a 82,82 45 0 1 82,82 l 0,174 0,174 a 82,82 135 0 1 -82,82 H 255.6974 82 A 82,82 45 0 1 0,430 Z"
       id="path4"
       inkscape:path-effect="#path-effect13"
       inkscape:original-d="M 0,256 V 0 H 255.6974 511.3948 V 256 512 H 255.6974 0 Z"
       transform="matrix(0.50059172,0,0,0.5,128,128)" /><path
       d="m 277.12,286.08 8.96,-8.96 -23.67999,-23.68 V 224.00001 H 249.6 V 258.56 Z M 256,320 q -13.28025,0 -24.96,-5.04061 -11.68026,-5.04011 -20.31975,-13.68011 -8.64051,-8.63856 -13.68,-20.31928 Q 192,269.28072 192,256 q 0,-13.28072 5.04025,-24.96 5.04,-11.68072 13.68,-20.32072 8.63949,-8.64 20.31975,-13.67867 Q 242.71975,192 256,192 q 13.27975,0 24.96,5.04061 11.67974,5.03867 20.31975,13.67867 8.64,8.64 13.68001,20.32072 Q 320,242.71928 320,256 q 0,13.27928 -5.04024,24.96 -5.04001,11.67928 -13.68001,20.31928 -8.64001,8.64144 -20.31975,13.68011 Q 269.27975,320 256,320 Z m 0,-64 z m 0,51.2 q 21.27975,0 36.23975,-14.96061 Q 307.2,277.27928 307.2,256 307.2,234.72072 292.23975,219.76061 277.28026,204.8 256,204.8 q -21.27974,0 -36.23975,14.96061 Q 204.8,234.72072 204.8,256 q 0,21.27928 14.96025,36.23939 Q 234.71974,307.2 256,307.2 Z"
       id="path1"
       style="fill:#ffffff;fill-opacity:1;stroke-width:0.16" /></g><metadata
     id="metadata1"><rdf:RDF><cc:Work
         rdf:about=""><dc:title>yt-pb-calc addon icon</dc:title><dc:creator><cc:Agent><dc:title>kurtnettle</dc:title></cc:Agent></dc:creator></cc:Work></rdf:RDF></metadata></svg>
