<svg xmlns="http://www.w3.org/2000/svg" xml:space="preserve" viewBox="0 0 256 256"><path d="M0 0h512v512H0z" style="fill:none;fill-opacity:.757083;stroke-width:0;stroke-dasharray:none" transform="translate(-128 -128)"/><path d="M.303 256V0h511.394v512H.303Z" style="fill:none;fill-opacity:.757083;stroke-width:0;stroke-dasharray:none" transform="translate(-128 -128)"/><path d="M0 256V82A82 82 135 0 1 82 0h347.395a82 82 45 0 1 82 82v348a82 82 135 0 1-82 82H82a82 82 45 0 1-82-82Z" style="fill:red;fill-opacity:.757083;stroke-width:0;stroke-dasharray:none" transform="scale(.5006 .5)"/><path d="m277.12 286.08 8.96-8.96-23.68-23.68V224h-12.8v34.56ZM256 320q-13.28 0-24.96-5.04-11.68-5.04-20.32-13.68t-13.68-20.32Q192 269.28 192 256q0-13.28 5.04-24.96 5.04-11.68 13.68-20.32t20.32-13.68Q242.72 192 256 192q13.28 0 24.96 5.04 11.68 5.04 20.32 13.68t13.68 20.32Q320 242.72 320 256q0 13.28-5.04 24.96-5.04 11.68-13.68 20.32t-20.32 13.68Q269.28 320 256 320Zm0-64zm0 51.2q21.28 0 36.24-14.96T307.2 256q0-21.28-14.96-36.24T256 204.8q-21.28 0-36.24 14.96T204.8 256q0 21.28 14.96 36.24T256 307.2Z" style="fill:#fff;fill-opacity:1;stroke-width:.16" transform="translate(-128 -128)"/></svg>